<?xml version="1.0" encoding="utf-8"?>
<!-- Generator: Adobe Illustrator 24.3.0, SVG Export Plug-In . SVG Version: 6.00 Build 0)  -->
<svg version="1.1" id="图层_1" xmlns="http://www.w3.org/2000/svg" xmlns:xlink="http://www.w3.org/1999/xlink" x="0px" y="0px"
	 viewBox="0 0 200 200" style="enable-background:new 0 0 200 200;" xml:space="preserve">
<style type="text/css">
	.st0{fill:#4F4F4F;}
</style>
<path class="st0" d="M91.3,188c-6.7,0-13.4-2.6-18.5-7.7l-54-54c-10.2-10.2-10.2-26.9,0-37.1l72.1-72.1c4-4,9.4-6.1,15-6l60.3,1.6
	c10.8,0.3,19.5,9,19.9,19.8l1.9,60.6c0.2,5.6-2,11.1-6,15.1l-72.1,72.1C104.8,185.4,98.1,188,91.3,188z M105.4,23.1
	c-2.2,0-4.4,0.9-6,2.5L27.3,97.7c-5.5,5.6-5.5,14.6,0,20.1l54,54c5.6,5.6,14.6,5.6,20.1,0l72.1-72.1c1.6-1.6,2.5-3.9,2.5-6.2
	l-1.9-60.6c-0.1-4.5-3.8-8.1-8.2-8.2l-60.3-1.6C105.5,23.1,105.4,23.1,105.4,23.1L105.4,23.1z"/>
<path class="st0" d="M132.1,87c-12.2,0-22-9.9-22-22s9.9-22,22-22s22,9.9,22,22S144.3,87,132.1,87z M132.1,54.9c-5.5,0-10,4.5-10,10
	s4.5,10,10,10s10-4.5,10-10S137.6,54.9,132.1,54.9z"/>
</svg>
