<?xml version="1.0" encoding="utf-8"?>
<!-- Generator: Adobe Illustrator 24.3.0, SVG Export Plug-In . SVG Version: 6.00 Build 0)  -->
<svg version="1.1" id="图层_1" xmlns="http://www.w3.org/2000/svg" xmlns:xlink="http://www.w3.org/1999/xlink" x="0px" y="0px"
	 viewBox="0 0 200 200" style="enable-background:new 0 0 200 200;" xml:space="preserve">
<style type="text/css">
	.st0{opacity:0.4;fill:#FF6868;enable-background:new    ;}
	.st1{fill:#FF6868;}
</style>
<path class="st0" d="M60.6,115c0,30.4,24.6,55,55,55s55-24.6,55-55l0,0c0-30.4-24.6-55-55-55S60.6,84.6,60.6,115
	C60.6,114.9,60.6,115,60.6,115z"/>
<path class="st1" d="M164,186.5h-23.4c-10.4,0-18.8-8.4-18.8-18.8v-33c0-5.5-4.5-10-10-10H90.6c-5.5,0-10,4.5-10,10v33
	c0,10.4-8.4,18.8-18.8,18.8H38.4c-11.9,0-21.5-9.6-21.5-21.5V83c0-11.4,5.5-22.3,14.6-29.1c0.1-0.1,0.2-0.1,0.2-0.2l56.7-38.1
	c7.6-5.6,17.8-5.6,25.4,0l56.7,38.1c0.1,0.1,0.2,0.1,0.2,0.2c9.2,6.8,14.6,17.7,14.6,29.1v82C185.4,176.9,175.8,186.5,164,186.5
	L164,186.5z M90.6,112.7h21.2c12.1,0,22,9.9,22,22v33c0,3.7,3,6.8,6.8,6.8H164c5.2,0,9.5-4.3,9.5-9.5V83c0-7.6-3.6-14.8-9.7-19.4
	l-56.7-38.1c-0.1,0-0.2-0.1-0.2-0.2c-3.4-2.5-7.9-2.5-11.3,0c-0.1,0.1-0.2,0.1-0.2,0.2L38.6,63.6c-6.1,4.6-9.7,11.8-9.7,19.4v82
	c0,5.2,4.3,9.5,9.5,9.5h23.4c3.7,0,6.8-3,6.8-6.8v-33C68.6,122.6,78.4,112.7,90.6,112.7L90.6,112.7z"/>
</svg>
