<?xml version="1.0" encoding="utf-8"?>
<!-- Generator: Adobe Illustrator 24.3.0, SVG Export Plug-In . SVG Version: 6.00 Build 0)  -->
<svg version="1.1" id="图层_1" xmlns="http://www.w3.org/2000/svg" xmlns:xlink="http://www.w3.org/1999/xlink" x="0px" y="0px"
	 viewBox="0 0 200 200" style="enable-background:new 0 0 200 200;" xml:space="preserve">
<style type="text/css">
	.st0{opacity:0.4;fill:#FF6868;enable-background:new    ;}
	.st1{fill:#FF6868;}
</style>
<path class="st0" d="M78.6,126.5c0,30.4,24.6,55,55,55s55-24.6,55-55l0,0c0-30.4-24.6-55-55-55S78.6,96.1,78.6,126.5L78.6,126.5z"/>
<path class="st1" d="M100.3,101.7c-24.6,0-44.7-20-44.7-44.7s20-44.7,44.7-44.7S145,32.4,145,57S125,101.7,100.3,101.7z M100.3,24.3
	c-18,0-32.7,14.7-32.7,32.7s14.7,32.7,32.7,32.7S133,75,133,57S118.3,24.3,100.3,24.3z M144.5,185.1H56.2c-21.5,0-39-17.5-39-39
	s17.5-38.9,39-38.9h88.4c21.5,0,38.9,17.5,38.9,38.9S166,185.1,144.5,185.1L144.5,185.1z M56.2,119.2c-14.9,0-26.9,12.1-26.9,27
	s12.1,26.9,26.9,26.9h88.4c14.9,0,26.9-12.1,26.9-26.9s-12.1-27-26.9-27H56.2L56.2,119.2z"/>
</svg>
