<?xml version="1.0" encoding="utf-8"?>
<!-- Generator: Adobe Illustrator 24.3.0, SVG Export Plug-In . SVG Version: 6.00 Build 0)  -->
<svg version="1.1" id="图层_1" xmlns="http://www.w3.org/2000/svg" xmlns:xlink="http://www.w3.org/1999/xlink" x="0px" y="0px"
	 viewBox="0 0 200 200" style="enable-background:new 0 0 200 200;" xml:space="preserve">
<style type="text/css">
	.st0{opacity:0.4;fill:#FF6868;enable-background:new    ;}
	.st1{fill:#FF6868;}
</style>
<path class="st0" d="M66.8,110.4c0,34.1,27.7,61.8,61.8,61.8s61.8-27.7,61.8-61.8s-27.7-61.8-61.8-61.8S66.8,76.3,66.8,110.4z"/>
<path class="st1" d="M168.9,183.9H31.3c-13.6,0-24.7-11-24.7-24.7c0-11.2,7.5-20.7,17.6-23.6V91.4c0-41.9,34.1-76,76-76
	s76,34.1,76,76v44.5c9.9,3.2,17.1,12.6,17.1,23.5C193.6,172.8,182.6,183.9,168.9,183.9L168.9,183.9z M100.4,29.4
	c-34.2,0-61.9,27.8-61.9,61.9v50.3c0,3.9-3.2,7-7,7c-5.9,0-10.6,4.7-10.6,10.6s4.7,10.6,10.6,10.6H169c5.8,0,10.6-4.7,10.6-10.6
	c0-5.6-4.6-10.5-10.3-10.6c-3.9-0.1-6.9-3.2-6.9-7V91.3C162.4,57.2,134.5,29.4,100.4,29.4z"/>
<path class="st1" d="M130.1,86.7c-2.8,0-5.6-1.8-6.6-4.6c-4.7-13-18.4-19.3-18.6-19.4c-3.5-1.5-5.2-5.6-3.6-9.3l0,0
	c1.5-3.5,5.6-5.2,9.3-3.6l0,0c0.8,0.4,19.4,8.6,26.2,27.5c1.3,3.6-0.6,7.8-4.2,9C131.6,86.6,130.8,86.7,130.1,86.7z"/>
</svg>
