<svg xmlns="http://www.w3.org/2000/svg" width="51" height="51" viewBox="0 0 51 51">
  <g id="组_56" data-name="组 56" transform="translate(-116 -62)">
    <rect id="矩形_2" data-name="矩形 2" width="51" height="51" rx="14" transform="translate(116 62)" fill="#ffe9e9"/>
    <path id="路径_8" data-name="路径 8" d="M147.546,136.961q.8,0,1.593-.011l.293,0a4.158,4.158,0,0,1,4.252,5.041l-1.55,8.7a4.264,4.264,0,0,1-4.064,3.409l-14.345.013a1.434,1.434,0,0,1-1.432-1.423l-.027-12.884a1.432,1.432,0,0,1,1.41-1.432l.106,0c.175,0,.4,0,.659,0a6,6,0,0,0,5.728-5.736c-.005-2.91,1.335-4.253,3.572-4.28,2.089-.025,3.577,2,3.6,5a17.9,17.9,0,0,1-.487,3.6l.691,0Zm-16.7,2.122.016,14.313a.715.715,0,0,1-.723.717h-1.418A.716.716,0,0,1,128,153.4V139.082a.714.714,0,0,1,.718-.717h1.409a.722.722,0,0,1,.719.717Z" transform="translate(1 -53.356)" fill="#fd5e5b"/>
  </g>
</svg>
