<svg xmlns="http://www.w3.org/2000/svg" width="51" height="51" viewBox="0 0 51 51">
  <g id="组_58" data-name="组 58" transform="translate(-284 -62)">
    <rect id="矩形_3" data-name="矩形 3" width="51" height="51" rx="14" transform="translate(284 62)" fill="#e4faf1"/>
    <path id="路径_10" data-name="路径 10" d="M90.042,207.45H68.975a1.919,1.919,0,0,1-1.913-1.914V199.9l-2.794-2.455a.919.919,0,0,1,0-1.3l2.794-2.455v-5.362a1.919,1.919,0,0,1,1.914-1.913H90.042a1.919,1.919,0,0,1,1.914,1.913v17.2a1.919,1.919,0,0,1-1.914,1.914ZM75.13,194.486a2.211,2.211,0,1,0,2.211,2.211,2.211,2.211,0,0,0-2.211-2.211Zm9.79,0a2.211,2.211,0,1,0,2.211,2.211,2.211,2.211,0,0,0-2.211-2.211Zm0,0" transform="translate(231 -109.42)" fill="#33da98"/>
  </g>
</svg>
