<svg xmlns="http://www.w3.org/2000/svg" width="51" height="51" viewBox="0 0 51 51">
  <g id="组_55" data-name="组 55" transform="translate(-32 -62)">
    <rect id="矩形_1" data-name="矩形 1" width="51" height="51" rx="14" transform="translate(32 62)" fill="#e7f1ff"/>
    <path id="路径_9" data-name="路径 9" d="M18.135,22.629A14.782,14.782,0,0,0,23.976,23.8a15.294,15.294,0,0,0,5.57-1A8.535,8.535,0,0,0,33.3,20.142h.008a1.233,1.233,0,0,1,2.46.06h.1c-.024.073-.06.143-.086.214a1.227,1.227,0,0,1-.4.853,8.615,8.615,0,0,1-3.354,3.247,15.813,15.813,0,0,1-7.833,1.8,18.1,18.1,0,0,1-7.725-1.52,10.447,10.447,0,0,1-4.838-4.612,13.468,13.468,0,0,1-1.585-6.453,14.671,14.671,0,0,1,1.8-7.134,11.885,11.885,0,0,1,4.933-4.961A15.067,15.067,0,0,1,23.933-.022,13.332,13.332,0,0,1,30,1.314a9.043,9.043,0,0,1,3.91,3.8,10.545,10.545,0,0,1,1.244,5.376,10.94,10.94,0,0,1-1.894,6.283,8.512,8.512,0,0,1-6.77,3.469,2.978,2.978,0,0,1-1.694-.395,1.913,1.913,0,0,1-.759-1.159,5.133,5.133,0,0,1-3.686,1.554A4.187,4.187,0,0,1,17.4,18.9a5.872,5.872,0,0,1-1.437-4.3,11.361,11.361,0,0,1,1.7-5.548,6.288,6.288,0,0,1,4.812-3.142,5.116,5.116,0,0,1,4.178,2l.111-.408a1.182,1.182,0,0,1-.032-.265l-.011-.111a1.191,1.191,0,1,1,2.382,0v.013h.014l-.01.038.006.06a1.181,1.181,0,0,1-.179.625l-1.99,7.786a8.333,8.333,0,0,0-.191,1.262.734.734,0,0,0,.156.511.487.487,0,0,0,.373.17,7.212,7.212,0,0,0,2.648-1.143,6.137,6.137,0,0,0,2.043-2.487,7.988,7.988,0,0,0,.722-3.612,7.1,7.1,0,0,0-2.084-5.608,9.486,9.486,0,0,0-6.736-2.275,11.586,11.586,0,0,0-6.1,1.526,9.579,9.579,0,0,0-3.871,4.238,13.2,13.2,0,0,0-1.349,5.69A9.6,9.6,0,0,0,14,19.091a8.8,8.8,0,0,0,4.138,3.538Zm6.5-13.446a2.568,2.568,0,0,0-1.965-.76,2.743,2.743,0,0,0-2.046.777,4.567,4.567,0,0,0-1.489,2.285,12.1,12.1,0,0,0-.78,2.971,3.871,3.871,0,0,0,.7,2.548,2.814,2.814,0,0,0,2.025.818,2.449,2.449,0,0,0,1.3-.446,3.586,3.586,0,0,0,1.017-.858,7.092,7.092,0,0,0,1.24-2.426,10.144,10.144,0,0,0,.78-2.907,2.594,2.594,0,0,0-.776-2Z" transform="translate(34.958 74.025)" fill="#7bbbff"/>
  </g>
</svg>
