<svg xmlns="http://www.w3.org/2000/svg" width="51" height="51" viewBox="0 0 51 51">
  <g id="组_57" data-name="组 57" transform="translate(-200 -63)">
    <rect id="矩形_4" data-name="矩形 4" width="51" height="51" rx="14" transform="translate(200 63)" fill="#fff0df"/>
    <g id="组_4" data-name="组 4" transform="translate(-68.6 -168.752)">
      <path id="路径_13" data-name="路径 13" d="M300.333,259.973c-.264-.3-.53-.59-.793-.853a9.448,9.448,0,0,0-1.435-1.206,7.99,7.99,0,0,0-.1-10.875,7.293,7.293,0,0,0-10.607,0,8.018,8.018,0,0,0-1.5,8.758,7.771,7.771,0,0,0,1.393,2.117,9.465,9.465,0,0,0-1.434,1.206,19.185,19.185,0,0,0-2.011,2.4,17.668,17.668,0,0,0-1.581,2.649,5.851,5.851,0,0,0-.668,2.347.487.487,0,0,0,.487.487l15.354.033A5.781,5.781,0,0,1,296.174,265a4.212,4.212,0,0,1-.165-1.188C296.009,260.909,298.127,259.213,300.333,259.973Z" transform="translate(0 0)" fill="#ffc56b"/>
      <path id="路径_14" data-name="路径 14" d="M603.3,580.349c.6-.5,3.636-2.734,4.24-4.533a3.181,3.181,0,0,0,.142-1.026c0-3.3-3.005-4.717-5.334-2.228-2.32-2.49-5.329-.989-5.329,2.228a3.636,3.636,0,0,0,.142,1.026c.54,1.847,3.637,4.031,4.24,4.533.211.176.407.332.584.468.106.082.183.139.224.169l.142.1.142-.1c.042-.03.118-.087.224-.169C602.9,580.681,603.093,580.525,603.3,580.349Z" transform="translate(-300.173 -310.757)" fill="#ffc56b"/>
    </g>
  </g>
</svg>
